<svg width="28" height="24" viewBox="0 0 28 24" fill="none" xmlns="http://www.w3.org/2000/svg">
<path d="M1.44266 6.90858C1.06093 6.62293 0.87007 6.4801 0.703665 6.46156C0.454812 6.43383 0.20541 6.56829 0.0823073 6.79655C-1.01626e-05 6.94919 -6.60302e-06 7.19221 5.24024e-07 7.67825V16.3217C-1.5214e-05 17.395 -2.82004e-05 18.2808 0.0562481 19.0024C0.114698 19.7519 0.240144 20.4408 0.554878 21.088C1.04296 22.0915 1.82177 22.9074 2.77969 23.4187C3.39739 23.7484 4.05501 23.8798 4.7704 23.9411C5.45919 24 6.30473 24 7.32923 24H20.6708C21.6953 24 22.5408 24 23.2296 23.9411C23.945 23.8798 24.6026 23.7484 25.2203 23.4187C26.1782 22.9074 26.957 22.0915 27.4451 21.088C27.7599 20.4408 27.8853 19.7519 27.9438 19.0024C28 18.2809 28 17.395 28 16.3218V7.67824C28 7.44002 28 7.32091 27.9792 7.23772C27.885 6.86169 27.4948 6.64749 27.146 6.78041C27.0689 6.80982 26.9742 6.87848 26.7849 7.01579L16.9313 14.1626C16.2326 14.6709 15.6192 15.1172 14.9223 15.2941C14.3128 15.4489 13.6763 15.444 13.069 15.2799C12.3746 15.0922 11.7675 14.6365 11.0761 14.1175L1.44266 6.90858Z" fill="#151515"/>
<path d="M26.8963 3.69163C27.1312 3.52123 27.2487 3.43603 27.3209 3.29899C27.3769 3.19257 27.409 3.02406 27.3961 2.90327C27.3796 2.74772 27.3165 2.64503 27.1903 2.43964C26.7068 1.65286 26.0111 1.00341 25.2203 0.5813C24.6026 0.251579 23.945 0.12016 23.2296 0.0589265C22.5408 -2.95378e-05 21.6953 -1.59362e-05 20.6708 5.48862e-07H7.32926C6.30476 -1.59362e-05 5.45919 -2.95416e-05 4.7704 0.0589265C4.05501 0.12016 3.39739 0.251579 2.77969 0.5813C2.06819 0.961089 1.4532 1.51014 0.985555 2.1778C0.838429 2.38785 0.764867 2.49288 0.740631 2.65227C0.721678 2.77693 0.748142 2.95009 0.803296 3.06232C0.873822 3.20582 0.996153 3.29736 1.24082 3.48044L12.4091 11.8377C13.3347 12.5303 13.5311 12.6508 13.7049 12.6978C13.9073 12.7525 14.1195 12.7541 14.3227 12.7025C14.4971 12.6582 14.6952 12.5408 15.6304 11.8625L26.8963 3.69163Z" fill="#151515"/>
</svg>
