<svg width="22" height="22" viewBox="0 0 22 22" fill="none" xmlns="http://www.w3.org/2000/svg">
<path d="M5.38856 20.4641C4.94567 20.2011 4.72423 20.0696 4.59274 19.8224C4.4878 19.625 4.45116 19.3329 4.50414 19.1158C4.57052 18.8437 4.77986 18.6344 5.19855 18.2157L12.8284 10.5858V13.8284C12.8284 14.3807 13.2761 14.8284 13.8284 14.8284C14.3807 14.8284 14.8284 14.3807 14.8284 13.8284V8.17157C14.8284 7.61929 14.3807 7.17157 13.8284 7.17157L8.17157 7.17157C7.61929 7.17157 7.17157 7.61929 7.17157 8.17157C7.17157 8.72386 7.61929 9.17157 8.17157 9.17157L11.4142 9.17157L3.78434 16.8015C3.36565 17.2201 3.1563 17.4295 2.88425 17.4959C2.66714 17.5488 2.37496 17.5122 2.17765 17.4073C1.9304 17.2758 1.79889 17.0543 1.53587 16.6114C-0.971029 12.3903 -0.409042 6.85269 3.22183 3.22183C7.51759 -1.07394 14.4824 -1.07394 18.7782 3.22182C23.0739 7.51759 23.0739 14.4824 18.7782 18.7782C15.1473 22.409 9.60968 22.971 5.38856 20.4641Z" fill="black"/>
</svg>
