<svg width="25" height="20" viewBox="0 0 25 20" fill="none" xmlns="http://www.w3.org/2000/svg">
<path d="M8.53648 19.7505C17.5909 19.7505 22.5446 12.2472 22.5446 5.74235C22.5446 5.53141 22.5399 5.31579 22.5305 5.10485C23.4942 4.40795 24.3258 3.54474 24.9863 2.55579C24.0889 2.95509 23.136 3.21587 22.1602 3.32922C23.1876 2.7134 23.9569 1.74596 24.3254 0.606255C23.3589 1.17905 22.3019 1.5831 21.1998 1.8011C20.4572 1.01205 19.4753 0.489605 18.406 0.314539C17.3367 0.139474 16.2395 0.321539 15.2841 0.832585C14.3286 1.34363 13.5681 2.15519 13.1202 3.1418C12.6722 4.12841 12.5618 5.2351 12.8059 6.29079C10.8488 6.19258 8.93426 5.68419 7.18631 4.79859C5.43835 3.91298 3.89602 2.66992 2.6593 1.15001C2.03073 2.23373 1.83838 3.51613 2.12136 4.73658C2.40433 5.95703 3.14139 7.02394 4.18273 7.72047C3.40096 7.69565 2.6363 7.48517 1.95195 7.10641V7.16735C1.95125 8.30464 2.34443 9.40707 3.06464 10.2873C3.78485 11.1674 4.78765 11.771 5.90258 11.9955C5.17838 12.1936 4.41831 12.2225 3.68117 12.0798C3.99578 13.0579 4.6079 13.9134 5.4321 14.5268C6.2563 15.1403 7.25145 15.4811 8.27867 15.5017C6.53475 16.8716 4.3805 17.6146 2.16289 17.6111C1.76962 17.6105 1.37673 17.5864 0.986328 17.5389C3.23918 18.9842 5.85986 19.7519 8.53648 19.7505Z" fill="#151515"/>
</svg>
